<?xml version="1.0" standalone="no"?><!DOCTYPE svg PUBLIC "-//W3C//DTD SVG 1.1//EN" "http://www.w3.org/Graphics/SVG/1.1/DTD/svg11.dtd"><svg t="1660805931231" class="icon" viewBox="0 0 1024 1024" version="1.1" xmlns="http://www.w3.org/2000/svg" p-id="1129" xmlns:xlink="http://www.w3.org/1999/xlink" width="200" height="200"><defs><style type="text/css">@font-face { font-family: feedback-iconfont; src: url("//at.alicdn.com/t/font_1031158_u69w8yhxdu.woff2?t=1630033759944") format("woff2"), url("//at.alicdn.com/t/font_1031158_u69w8yhxdu.woff?t=1630033759944") format("woff"), url("//at.alicdn.com/t/font_1031158_u69w8yhxdu.ttf?t=1630033759944") format("truetype"); }
</style></defs><path d="M768 489.6a22.4 22.4 0 0 1 22.208 19.36L790.4 512v256a86.4 86.4 0 0 1-80.96 86.24L704 854.4H320a86.4 86.4 0 0 1-86.24-80.96L233.6 768v-256a22.4 22.4 0 0 1 44.608-3.04L278.4 512v256a41.6 41.6 0 0 0 37.344 41.376L320 809.6h105.6V704a86.4 86.4 0 0 1 80.96-86.24L512 617.6a86.4 86.4 0 0 1 86.4 86.4v105.6H704a41.6 41.6 0 0 0 41.376-37.344L745.6 768v-256a22.4 22.4 0 0 1 22.4-22.4z m-256 172.8a41.6 41.6 0 0 0-41.6 41.6v105.6h83.2V704a41.6 41.6 0 0 0-37.344-41.376z m12.992-489.28l3.008 2.24 319.04 288a22.4 22.4 0 0 1-27.168 35.488l-2.88-2.24-304.064-274.464-305.984 274.528a22.4 22.4 0 0 1-28.96 0.8l-2.656-2.528a22.4 22.4 0 0 1-0.8-28.96l2.528-2.656 320.96-288a22.4 22.4 0 0 1 26.976-2.24z" p-id="1130"></path></svg>